<mxfile host="app.diagrams.net" agent="Mozilla/5.0 (Windows NT 10.0; Win64; x64) AppleWebKit/537.36 (KHTML, like Gecko) Chrome/129.0.0.0 Safari/537.36 Edg/129.0.0.0" version="24.7.17">
  <diagram id="C5RBs43oDa-KdzZeNtuy" name="Page-1">
    <mxGraphModel dx="2084" dy="994" grid="1" gridSize="10" guides="1" tooltips="1" connect="1" arrows="1" fold="1" page="1" pageScale="1" pageWidth="827" pageHeight="1169" math="0" shadow="0">
      <root>
        <mxCell id="WIyWlLk6GJQsqaUBKTNV-0" />
        <mxCell id="WIyWlLk6GJQsqaUBKTNV-1" parent="WIyWlLk6GJQsqaUBKTNV-0" />
        <mxCell id="Sh1Hu9otl2QWUOmYn3ZM-3" style="edgeStyle=orthogonalEdgeStyle;rounded=0;orthogonalLoop=1;jettySize=auto;html=1;" edge="1" parent="WIyWlLk6GJQsqaUBKTNV-1" source="Sh1Hu9otl2QWUOmYn3ZM-0" target="Sh1Hu9otl2QWUOmYn3ZM-1">
          <mxGeometry relative="1" as="geometry" />
        </mxCell>
        <mxCell id="Sh1Hu9otl2QWUOmYn3ZM-0" value="START" style="ellipse;whiteSpace=wrap;html=1;" vertex="1" parent="WIyWlLk6GJQsqaUBKTNV-1">
          <mxGeometry x="350" y="30" width="120" height="80" as="geometry" />
        </mxCell>
        <mxCell id="Sh1Hu9otl2QWUOmYn3ZM-5" style="edgeStyle=orthogonalEdgeStyle;rounded=0;orthogonalLoop=1;jettySize=auto;html=1;" edge="1" parent="WIyWlLk6GJQsqaUBKTNV-1" source="Sh1Hu9otl2QWUOmYn3ZM-1" target="Sh1Hu9otl2QWUOmYn3ZM-2">
          <mxGeometry relative="1" as="geometry" />
        </mxCell>
        <mxCell id="Sh1Hu9otl2QWUOmYn3ZM-6" style="edgeStyle=orthogonalEdgeStyle;rounded=0;orthogonalLoop=1;jettySize=auto;html=1;" edge="1" parent="WIyWlLk6GJQsqaUBKTNV-1" source="Sh1Hu9otl2QWUOmYn3ZM-1" target="Sh1Hu9otl2QWUOmYn3ZM-4">
          <mxGeometry relative="1" as="geometry" />
        </mxCell>
        <mxCell id="Sh1Hu9otl2QWUOmYn3ZM-1" value="WAKE UP" style="rounded=0;whiteSpace=wrap;html=1;" vertex="1" parent="WIyWlLk6GJQsqaUBKTNV-1">
          <mxGeometry x="350" y="170" width="120" height="60" as="geometry" />
        </mxCell>
        <mxCell id="Sh1Hu9otl2QWUOmYn3ZM-10" style="edgeStyle=orthogonalEdgeStyle;rounded=0;orthogonalLoop=1;jettySize=auto;html=1;" edge="1" parent="WIyWlLk6GJQsqaUBKTNV-1" source="Sh1Hu9otl2QWUOmYn3ZM-2" target="Sh1Hu9otl2QWUOmYn3ZM-9">
          <mxGeometry relative="1" as="geometry" />
        </mxCell>
        <mxCell id="Sh1Hu9otl2QWUOmYn3ZM-2" value="SHOWER" style="rounded=0;whiteSpace=wrap;html=1;" vertex="1" parent="WIyWlLk6GJQsqaUBKTNV-1">
          <mxGeometry x="350" y="360" width="120" height="60" as="geometry" />
        </mxCell>
        <mxCell id="Sh1Hu9otl2QWUOmYn3ZM-8" style="edgeStyle=orthogonalEdgeStyle;rounded=0;orthogonalLoop=1;jettySize=auto;html=1;entryX=0.5;entryY=0;entryDx=0;entryDy=0;" edge="1" parent="WIyWlLk6GJQsqaUBKTNV-1" source="Sh1Hu9otl2QWUOmYn3ZM-4" target="Sh1Hu9otl2QWUOmYn3ZM-7">
          <mxGeometry relative="1" as="geometry" />
        </mxCell>
        <mxCell id="Sh1Hu9otl2QWUOmYn3ZM-4" value="START" style="ellipse;whiteSpace=wrap;html=1;" vertex="1" parent="WIyWlLk6GJQsqaUBKTNV-1">
          <mxGeometry x="532" y="244" width="120" height="80" as="geometry" />
        </mxCell>
        <mxCell id="Sh1Hu9otl2QWUOmYn3ZM-14" style="edgeStyle=orthogonalEdgeStyle;rounded=0;orthogonalLoop=1;jettySize=auto;html=1;" edge="1" parent="WIyWlLk6GJQsqaUBKTNV-1" source="Sh1Hu9otl2QWUOmYn3ZM-7">
          <mxGeometry relative="1" as="geometry">
            <mxPoint x="410" y="590" as="targetPoint" />
            <Array as="points">
              <mxPoint x="592" y="590" />
            </Array>
          </mxGeometry>
        </mxCell>
        <mxCell id="Sh1Hu9otl2QWUOmYn3ZM-7" value="Listen to music" style="rounded=0;whiteSpace=wrap;html=1;" vertex="1" parent="WIyWlLk6GJQsqaUBKTNV-1">
          <mxGeometry x="532" y="361" width="120" height="60" as="geometry" />
        </mxCell>
        <mxCell id="Sh1Hu9otl2QWUOmYn3ZM-13" style="edgeStyle=orthogonalEdgeStyle;rounded=0;orthogonalLoop=1;jettySize=auto;html=1;entryX=0.5;entryY=0;entryDx=0;entryDy=0;" edge="1" parent="WIyWlLk6GJQsqaUBKTNV-1" source="Sh1Hu9otl2QWUOmYn3ZM-9" target="Sh1Hu9otl2QWUOmYn3ZM-12">
          <mxGeometry relative="1" as="geometry" />
        </mxCell>
        <mxCell id="Sh1Hu9otl2QWUOmYn3ZM-18" style="edgeStyle=orthogonalEdgeStyle;rounded=0;orthogonalLoop=1;jettySize=auto;html=1;entryX=0;entryY=0.5;entryDx=0;entryDy=0;exitX=0.5;exitY=1;exitDx=0;exitDy=0;" edge="1" parent="WIyWlLk6GJQsqaUBKTNV-1" source="Sh1Hu9otl2QWUOmYn3ZM-9" target="Sh1Hu9otl2QWUOmYn3ZM-16">
          <mxGeometry relative="1" as="geometry" />
        </mxCell>
        <mxCell id="Sh1Hu9otl2QWUOmYn3ZM-9" value="Dress UP" style="rounded=0;whiteSpace=wrap;html=1;" vertex="1" parent="WIyWlLk6GJQsqaUBKTNV-1">
          <mxGeometry x="350" y="504" width="120" height="60" as="geometry" />
        </mxCell>
        <mxCell id="Sh1Hu9otl2QWUOmYn3ZM-20" style="edgeStyle=orthogonalEdgeStyle;rounded=0;orthogonalLoop=1;jettySize=auto;html=1;entryX=0.5;entryY=0;entryDx=0;entryDy=0;" edge="1" parent="WIyWlLk6GJQsqaUBKTNV-1" source="Sh1Hu9otl2QWUOmYn3ZM-12" target="Sh1Hu9otl2QWUOmYn3ZM-19">
          <mxGeometry relative="1" as="geometry" />
        </mxCell>
        <mxCell id="Sh1Hu9otl2QWUOmYn3ZM-12" value="BREKFAST" style="rounded=0;whiteSpace=wrap;html=1;" vertex="1" parent="WIyWlLk6GJQsqaUBKTNV-1">
          <mxGeometry x="350" y="748" width="120" height="60" as="geometry" />
        </mxCell>
        <mxCell id="Sh1Hu9otl2QWUOmYn3ZM-15" style="edgeStyle=orthogonalEdgeStyle;rounded=0;orthogonalLoop=1;jettySize=auto;html=1;entryX=0.5;entryY=0;entryDx=0;entryDy=0;" edge="1" parent="WIyWlLk6GJQsqaUBKTNV-1" source="Sh1Hu9otl2QWUOmYn3ZM-16" target="Sh1Hu9otl2QWUOmYn3ZM-17">
          <mxGeometry relative="1" as="geometry" />
        </mxCell>
        <mxCell id="Sh1Hu9otl2QWUOmYn3ZM-16" value="START" style="ellipse;whiteSpace=wrap;html=1;" vertex="1" parent="WIyWlLk6GJQsqaUBKTNV-1">
          <mxGeometry x="533" y="632" width="120" height="80" as="geometry" />
        </mxCell>
        <mxCell id="Sh1Hu9otl2QWUOmYn3ZM-21" style="edgeStyle=orthogonalEdgeStyle;rounded=0;orthogonalLoop=1;jettySize=auto;html=1;" edge="1" parent="WIyWlLk6GJQsqaUBKTNV-1" source="Sh1Hu9otl2QWUOmYn3ZM-17">
          <mxGeometry relative="1" as="geometry">
            <mxPoint x="410" y="860" as="targetPoint" />
            <Array as="points">
              <mxPoint x="593" y="860" />
            </Array>
          </mxGeometry>
        </mxCell>
        <mxCell id="Sh1Hu9otl2QWUOmYn3ZM-17" value="PODCAST" style="rounded=0;whiteSpace=wrap;html=1;" vertex="1" parent="WIyWlLk6GJQsqaUBKTNV-1">
          <mxGeometry x="533" y="749" width="120" height="60" as="geometry" />
        </mxCell>
        <mxCell id="Sh1Hu9otl2QWUOmYn3ZM-19" value="FINALE" style="rounded=1;whiteSpace=wrap;html=1;" vertex="1" parent="WIyWlLk6GJQsqaUBKTNV-1">
          <mxGeometry x="350" y="920" width="120" height="60" as="geometry" />
        </mxCell>
      </root>
    </mxGraphModel>
  </diagram>
</mxfile>
